<svg width="200" height="200" viewBox="0 0 200 200" fill="none" xmlns="http://www.w3.org/2000/svg">
<path d="M54.843 100L21.0884 117.99L59.292 119.6L36.7271 150.469L71.8403 135.323L64.8739 172.924L89.9225 144.036L99.9987 180.918L110.076 144.036L135.125 172.924L128.157 135.323L163.272 150.468L140.705 119.599L178.91 117.99L145.154 100L178.91 82.0111L140.705 80.4011L163.272 49.5308L128.157 64.6781L135.125 27.0774L110.076 55.9656L99.9987 19.083L89.9225 55.9656L64.8739 27.0774L71.8403 64.6781L36.7271 49.532L59.2907 80.4011L21.0884 82.0111L54.843 100Z" fill="#FCDD66"/>
<path d="M99.9987 200L87.5528 154.444L56.5606 190.188L65.1798 143.673L21.7819 162.393L49.6798 124.228L2.4267 122.237L44.151 100L2.4267 77.7631L49.6785 75.7733L21.7819 37.6099L65.1798 56.3286L56.5593 9.81178L87.5528 45.5563L99.9987 0L112.445 45.5563L143.438 9.81178L134.819 56.3286L178.217 37.6086L150.319 75.7733L197.573 77.7644L155.846 100.001L197.573 122.24L150.319 124.229L178.217 162.393L134.819 143.674L143.435 190.19L112.445 154.445L99.9987 200ZM92.2921 133.625L99.9987 161.835L107.707 133.625L126.81 155.66L121.495 126.972L148.325 138.545L131.093 114.97L160.249 113.741L134.461 99.9987L160.249 86.2565L131.093 85.0276L148.325 61.4529L121.495 73.0264L126.81 44.3403L107.707 66.375L99.9987 38.1647L92.2921 66.375L73.1871 44.3416L78.502 73.029L51.6722 61.4568L68.9041 85.0302L39.7514 86.2591L65.5363 100.001L39.7514 113.743L68.9054 114.972L51.6735 138.547L78.5033 126.974L73.1884 155.661L92.2921 133.625Z" fill="#FCDD66"/>
<path d="M62.5742 100L32.9872 115.277L66.2596 116.244L46.2666 142.86L76.6612 129.277L70.1706 161.929L91.6466 136.496L99.9987 168.717L108.351 136.496L129.829 161.929L123.337 129.276L153.729 142.859L133.738 116.244L167.011 115.277L137.424 100L167.011 84.723L133.738 83.756L153.729 57.1414L123.336 70.7241L129.827 38.0727L108.351 63.5037L99.9987 31.2826L91.6466 63.5037L70.1693 38.0727L76.6612 70.7254L46.2666 57.1427L66.2596 83.7572L32.9872 84.7243L62.5742 100Z" fill="#FBD009"/>
<path d="M99.9987 170.944L91.3756 137.682L69.201 163.944L75.9029 130.229L44.5231 144.252L65.1655 116.772L30.8094 115.774L61.3557 100L30.8094 84.2291L65.1655 83.2296L44.5231 55.7505L75.9029 69.7739L69.201 36.0582L91.3769 62.3189L100 29.0568L108.622 62.3189L130.798 36.0569L124.096 69.7726L155.474 55.7492L134.832 83.2284L169.191 84.2278L138.643 100L169.191 115.774L134.832 116.772L155.474 144.251L124.096 130.227L130.799 163.943L108.622 137.682L99.9987 170.944ZM91.9162 135.31L99.9987 166.49L108.081 135.31L128.857 159.913L122.578 128.324L151.986 141.468L132.642 115.716L164.834 114.782L136.206 100L164.834 85.2182L132.642 84.2835L151.986 58.5323L122.578 71.6756L128.857 40.0871L108.081 64.6911L99.9987 33.5097L91.9162 64.6898L71.1389 40.0871L77.4196 71.6756L48.0115 58.5336L67.355 84.2848L35.165 85.2195L63.7914 100L35.165 114.782L67.355 115.718L48.0115 141.469L77.4209 128.326L71.1415 159.914L91.9162 135.31Z" fill="#FBD009"/>
<path d="M99.9987 135.899C119.825 135.899 135.897 119.826 135.897 100C135.897 80.1737 119.825 64.1013 99.9987 64.1013C80.1724 64.1013 64.1 80.1737 64.1 100C64.1 119.826 80.1724 135.899 99.9987 135.899Z" fill="#FCDD66"/>
</svg>
